<?xml version="1.0" encoding="UTF-8" standalone="no"?>
<svg
   viewBox="0 0 48 48"
   width="48"
   height="48"
   version="1.1"
   id="svg3"
   sodipodi:docname="overwatch-logo-white.svg"
   inkscape:export-filename="icons8-overwatch-logo.png"
   inkscape:export-xdpi="96"
   inkscape:export-ydpi="96"
   inkscape:version="1.4.4 (dcaf3e7, 2026-05-05)"
   xmlns:inkscape="http://www.inkscape.org/namespaces/inkscape"
   xmlns:sodipodi="http://sodipodi.sourceforge.net/DTD/sodipodi-0.dtd"
   xmlns="http://www.w3.org/2000/svg"
   xmlns:svg="http://www.w3.org/2000/svg">
  <defs
     id="defs3" />
  <sodipodi:namedview
     id="namedview3"
     pagecolor="#ffffff"
     bordercolor="#000000"
     borderopacity="0.25"
     inkscape:showpageshadow="2"
     inkscape:pageopacity="0.0"
     inkscape:pagecheckerboard="0"
     inkscape:deskcolor="#d1d1d1"
     inkscape:export-bgcolor="#ffffff00"
     inkscape:zoom="16.8125"
     inkscape:cx="24"
     inkscape:cy="19.241636"
     inkscape:window-width="1920"
     inkscape:window-height="1009"
     inkscape:window-x="-8"
     inkscape:window-y="-8"
     inkscape:window-maximized="1"
     inkscape:current-layer="svg3">
    <inkscape:page
       x="0"
       y="0"
       width="48"
       height="48"
       id="page2"
       margin="0"
       bleed="0" />
  </sodipodi:namedview>
  <g
     id="g237">
    <path
       fill="#f97f00"
       d="M 15.525,12.883 C 17.88,11.083 20.813,10 24,10 c 3.046,0 5.859,0.989 8.159,2.646 L 36,8.038 C 32.652,5.515 28.505,4 24,4 19.293,4 14.968,5.645 11.548,8.376 Z"
       id="path1"
       style="fill:#55d400" />
    <path
       fill="#424242"
       d="m 37.536,9.319 -3.839,4.606 C 36.344,16.474 38,20.044 38,24 38,31.72 31.72,38 24,38 16.28,38 10,31.72 10,24 c 0,-3.814 1.537,-7.273 4.019,-9.8 L 10.047,9.698 C 6.323,13.333 4,18.397 4,24 4,35.028 12.972,44 24,44 35.028,44 44,35.028 44,24 44,18.195 41.499,12.976 37.536,9.319 Z"
       id="path2"
       style="fill:#ffffff;fill-opacity:1" />
    <path
       fill="#424242"
       d="M 33,36 25,28 V 15 l 3,8 9,9 z m -18,0 8,-8 V 15 l -3,8 -9,9 z"
       id="path3"
       style="fill:#ffffff;fill-opacity:1" />
  </g>
</svg>
